<?xml version="1.0" encoding="UTF-8"?>
<svg version="1.1" width="1122" height="1596" xmlns="http://www.w3.org/2000/svg">
 <path d="m332.5 1591.4c-6.6243-1.3954-11.189-2.8145-12.5-3.8865-3.0219-2.4702-11.548-6.4698-13.792-6.4698-5.4657 0-12.363-5.8073-14.252-12-0.70925-2.3249-0.96509-18.441-0.76197-48l0.30578-44.5 2.4285-5c2.2677-4.6691 4.5826-13.762 7.128-28 1.3992-7.8265 3.6128-15.895 5.8984-21.5 1.0093-2.475 2.1607-7.839 2.5587-11.92 0.39798-4.081 1.1668-8.806 1.7084-10.5 0.54165-1.694 1.3071-8.48 1.701-15.08 0.63917-10.709 1.0619-12.699 3.9295-18.495 2.4347-4.9213 3.4432-8.677 4.1622-15.5 0.52193-4.9527 1.4071-10.577 1.9671-12.498 0.55999-1.9214 1.0329-13.171 1.0508-25 0.02876-18.946 0.2705-22.161 2.0307-27.007 3.5241-9.7005 4.724-14.353 5.4158-21 0.3721-3.575 1.3465-8.975 2.1652-12 0.90955-3.3603 1.6806-12.114 1.9821-22.5 0.52851-18.211 1.4999-24.723 4.6104-30.909 1.4375-2.8586 2.1815-7.2084 2.7696-16.192 0.4423-6.7561 1.1265-12.805 1.5205-13.443 0.39398-0.63748 1.0848-4.4449 1.5352-8.4608 0.57034-5.0857 1.9294-9.642 4.478-15.013l3.6591-7.7108-0.34969-12.16c-0.33574-11.675-0.47646-12.359-3.5282-17.136-1.7482-2.7367-4.1039-7.3376-5.2348-10.224-2.5646-6.546-6.3414-12.354-11.845-18.216-4.5458-4.8417-7.6848-10.715-11.118-20.802-1.1729-3.4465-3.7057-8.5044-5.6283-11.24-1.9226-2.7354-3.4957-5.3814-3.4957-5.8801s-1.6806-2.3823-3.7348-4.1858c-2.0541-1.8035-4.2278-4.2127-4.8303-5.3536-5.1506-9.7529-11.292-19.588-13.472-21.574-0.30178-0.275-1.8503-3.1071-3.4412-6.2935-1.7139-3.4328-7.0823-10.36-13.175-17-5.6552-6.1636-10.297-11.753-10.314-12.422-0.017793-0.66854-1.3976-2.6122-3.0663-4.3192-1.6687-1.707-4.3684-5.8851-5.9993-9.2845-1.6309-3.3994-3.8556-7.3058-4.9438-8.6808-1.0881-1.375-1.9885-3.0015-2.0007-3.6145-0.01223-0.61297-1.3903-2.638-3.0624-4.5-3.0597-3.4073-10.431-17.528-13.513-25.886-2.5431-6.8969-2.8073-10.403-1.0413-13.818 0.87669-1.6953 1.594-5.1194 1.594-7.609 0-5.9774-2.3248-7.4827-13.197-8.5451-6.4682-0.63205-9.9102-1.6085-15.579-4.4194-4.002-1.9845-7.9369-3.6081-8.7442-3.6081-2.992 0-10.046-8.6182-14.733-18-2.6104-5.225-4.7462-9.9783-4.7461-10.563 9.5047e-5 -0.5846-1.3192-2.3269-2.9317-3.8718s-4.3219-5.5666-6.0208-8.9371c-3.7968-7.5326-8.5715-14.303-11.005-15.606-2.1829-1.1682-6.7955-9.2331-10.022-17.522-1.2844-3.3-3.0813-6.9-3.9931-8-3.0889-3.7265-4.8422-7.1385-6.4497-12.551-0.88141-2.968-2.9723-7.1009-4.6465-9.1842-1.6742-2.0833-3.9937-6.8138-5.1546-10.512-3.5201-11.215-5.9541-14.339-13.619-17.482-13.527-5.5467-19.216-13.182-20.69-27.77-1.1352-11.236-6.2861-17.336-16.467-19.5-5.6181-1.1944-10.289-4.005-14.814-8.9142-4.5508-4.937-14.17-19.127-14.211-20.964-0.013966-0.61693-2.1691-3.6986-4.7893-6.8481s-6.3212-8.7567-8.2246-12.46-4.4718-7.5709-5.7077-8.5938-4.1961-4.8657-6.5784-8.5396c-2.3823-3.6739-5.0837-7.2974-6.003-8.0523-0.91936-0.75484-1.6716-1.7635-1.6716-2.2413 0-0.4779-1.5568-2.9084-3.4595-5.4011-7.6383-10.007-7.4987-21.919 0.35503-30.297 1.7075-1.8214 3.1045-3.7738 3.1045-4.3386 0-0.56481 2.025-3.3418 4.5-6.1711 2.475-2.8293 4.5-5.4462 4.5-5.8153 0-0.36911 1.6197-3.5268 3.5994-7.0172s4.4385-9.0461 5.4641-12.346c2.6544-8.5409 6.4544-14.004 18.155-26.099 5.6546-5.8452 10.899-11.275 11.653-12.065 1.0226-1.0712 1.1798-2.7628 0.6168-6.6368-1.8244-12.555-1.3441-15.763 3.8658-25.824 2.6702-5.1564 6.8327-11.416 9.25-13.91s4.3951-4.9901 4.3951-5.5471c1e-13 -0.55699 1.8-2.7704 4-4.9186s4-4.3481 4-4.8885c0-0.54043 0.82105-1.9116 1.8246-3.0471 1.0035-1.1354 3.0846-4.9456 4.6246-8.4671s4.7237-8.9215 7.0749-12c4.1824-5.4763 10.961-12.097 12.385-12.097 1.6844 0 5.9673-5.8824 7.6451-10.5 2.6488-7.2902 7.3657-14.191 14.353-21 7.6042-7.4095 9.7194-10.705 12.014-18.717 2.3165-8.0877 5.3308-13.653 8.5325-15.753 3.8635-2.5344 8.9082-9.0022 10.943-14.03 2.855-7.0545 3.4844-8.2795 6.0749-11.825 1.3362-1.8287 3.1317-5.6537 3.99-8.5 1.6889-5.6005 5.8556-12.157 11.788-18.548 2.0625-2.2221 3.75-4.5002 3.75-5.0625 0-1.0334 6.7002-7.9134 13.37-13.729 1.9962-1.7406 3.6295-3.7938 3.6295-4.5628 0-1.6008 4.495-11.209 6.297-13.46 0.66165-0.82657 3.1155-3.6441 5.453-6.2612s4.25-5.2085 4.25-5.7586c0-1.8763 16.738-19.292 18.541-19.292 0.60262 0 2.8649-1.5984 5.0273-3.552 6.2653-5.6603 13.74-8.8085 19.339-8.1454 2.575 0.30497 6.0117 1.2166 7.6373 2.0259 3.7809 1.8823 6.871 2.7573 23.956 6.7833 10.265 2.4189 15.367 4.1645 19.122 6.5425 2.8171 1.7838 6.4171 3.5446 8 3.9128 3.4668 0.80645 10.991 4.9845 12.089 6.7132 1.253 1.972 10.331 5.5301 15.704 6.1551 2.7034 0.31445 7.2721 1.8076 10.153 3.3182 5.5984 2.9358 13.73 6.9856 19.432 9.6785 1.925 0.90905 5.5974 3.0962 8.1608 4.8604 13.293 9.1481 16.076 10.453 23.839 11.176 4.125 0.38411 10.04 1.3359 13.144 2.1152s9.063 1.4168 13.241 1.4168c7.0788 0 7.8966 0.22871 11.99 3.353 2.416 1.8442 5.4242 4.314 6.6849 5.4886 1.2607 1.1745 3.1729 2.415 4.2492 2.7566s4.7095 2.3675 8.0737 4.5019 7.0743 3.8851 8.2446 3.8903c2.4508 0.010942 6.4623 1.5967 18.372 7.2626 4.675 2.224 12.463 5.3283 17.306 6.8985 4.8431 1.5701 10.158 3.5538 11.81 4.4083s6.6897 2.4044 11.194 3.4444c14.062 3.2466 15.046 3.5922 20.892 7.3402 3.1361 2.0106 6.0611 3.6604 6.5 3.6663 0.43892 0.0058456 3.048 1.8011 5.798 3.9894s5.6975 3.9835 6.55 3.9894c0.8525 0.0058456 1.9775 0.39715 2.5 0.86956s4.2272 1.3791 8.2326 2.0149c5.6618 0.89867 8.3325 1.9326 12 4.6459 2.5946 1.9195 7.7455 5.5038 11.446 7.9652s7.2967 5.3842 7.9905 6.4952 1.654 2.02 2.1337 2.02c1.3156 0 13.001 8.964 14.147 10.852 1.4808 2.4405 1.2323 26.736-0.33593 32.836-0.73361 2.8534-2.648 7.2603-4.2542 9.793-2.635 4.1549-3.0128 5.8466-3.8661 17.312-0.8505 11.428-2.3048 18.365-6.1232 29.207-1.298 3.6856-5.7624 12.8-7.1023 14.5-4.8457 6.1476-6.2566 7.5-7.8239 7.5-1.0053 0-1.9778 0.36041-2.1611 0.80091-0.83302 2.0015-10.99 6.454-17.613 7.7213-6.9905 1.3375-15.22 4.9396-15.22 6.6619 0 0.44872-0.59048 0.81586-1.3122 0.81586-0.72169 0-3.175 0.9-5.4517 2-3.7031 1.7891-6.186 2-23.551 2-23.234 0-28.028 0.7865-37.185 6.0995-7.0167 4.0714-13.693 6.8581-16.5 6.8868-0.825 0.0084344-3.2879 1.6066-5.4732 3.5515-2.1853 1.9449-5.1103 3.8571-6.5 4.2492s-11.607 0.71303-22.705 0.71303c-23.05 0-22.959 0.028521-28.988-9.0706-7.2003-10.866-9.4957-13.383-15.541-17.043-3.4607-2.0952-7.1646-4.6143-8.2308-5.5981s-2.357-1.7886-2.8684-1.7886c-1.8922 0-15.849-15.285-20.923-22.914-1.2487-1.8776-4.5204-4.8765-7.2704-6.6641-5.8095-3.7765-13.867-11.745-15.76-15.586-1.3212-2.6808-12.597-11.836-14.578-11.836-0.58469 0-1.4229-0.60931-1.8628-1.354-0.43983-0.74471-1.8647-1.9136-3.1664-2.5976-1.9616-1.0307-2.6292-0.98102-3.9007 0.29044-2.4312 2.4312 0.020662 18.43 3.9326 25.661 2.6274 4.8566 3.042 6.7921 3.5436 16.545 0.31246 6.0745 0.24463 14.065-0.15073 17.757-0.6276 5.8605-1.2523 7.3777-4.9225 11.955-2.312 2.8837-5.0442 7.1555-6.0715 9.493s-2.1472 4.25-2.4886 4.25c-0.3414 0-1.5095 1.6875-2.5959 3.75s-5.4637 8.1606-9.7274 13.551c-4.2637 5.3908-7.7542 10.566-7.7566 11.5-0.0023754 0.93423-1.9149 3.7649-4.25 6.2904-3.4086 3.6865-5.4416 4.9188-10.311 6.25-3.3361 0.912-8.2985 1.6582-11.027 1.6582-5.0104 0-9.437 2.0338-9.3736 4.3067 0.047399 1.7001 3.1252 5.1644 6.0081 6.7626 5.5634 3.0841 17.986 5.9835 29.793 6.9533 6.983 0.57359 13.578 1.6562 15.2 2.4953 1.5764 0.81517 3.5313 1.4821 4.3443 1.4821 0.81303 0 2.0729 0.59193 2.7997 1.3154s3.5714 2.6069 6.3214 4.1855c2.75 1.5785 6.9704 4.1981 9.3787 5.8212 2.4083 1.6231 6.3215 3.5358 8.696 4.2505 5.1909 1.5622 8.1294 3.0739 10.786 5.5486 2.9672 2.7643 10.982 6.7233 16.901 8.3488 2.881 0.79113 6.3632 1.7648 7.7382 2.1636s5.65 2.3935 9.5 4.4325c6.1931 3.2799 8.0677 3.7705 16.262 4.2564 6.8218 0.40451 10.509 1.1589 13.996 2.8634 5.7966 2.8334 21.425 18.286 24.377 24.102 1.1758 2.3168 3.2013 5.4845 4.5012 7.0392 1.2998 1.5547 2.3633 3.1943 2.3633 3.6436 0 0.4493 2.5875 3.4799 5.75 6.7346 5.5655 5.7278 11.25 14.71 11.25 17.777 0 0.82323 1.7994 4.089 3.9987 7.2573s3.9993 6.3269 4 7.0191 3.6013 5.2737 8.0013 10.181c4.4 4.9074 8 9.1882 8 9.5129 0 0.7738 5.1391 8.6703 6.7482 10.369 0.68847 0.72679 1.2518 1.6643 1.2518 2.0833s1.5819 2.3438 3.5153 4.2772c2.4783 2.4783 3.9681 5.2562 5.0502 9.4167 1.73 6.6515 5.4817 11.226 11.75 14.327 4.949 2.4486 10.128 9.611 11.855 16.396 1.1759 4.6195 2.5862 6.4474 13.074 16.946 6.4657 6.4724 11.756 12.038 11.756 12.368s1.338 2.1239 2.9734 3.9865c1.6353 1.8626 3.7186 5.972 4.6295 9.132 1.8771 6.5119 3.5991 9.2092 11.393 17.845 3.2554 3.6074 7.2893 9.7362 9.8726 15 2.4024 4.8952 6.1149 11.192 8.25 13.993 2.1351 2.8008 3.882 5.7403 3.882 6.5323s3.5162 5.2504 7.8138 9.9076c8.7441 9.4759 15.545 18.372 16.61 21.727 0.38908 1.2259 1.3711 2.8925 2.1822 3.7037s2.4835 3.2506 3.7163 5.421c1.2328 2.1704 5.7474 7.6402 10.032 12.155 7.9434 8.3697 10.668 13.397 16.012 29.542 1.1984 3.6207 3.6695 7.2143 8.5954 12.5 5.5316 5.9357 7.349 8.7176 9.0926 13.918 1.1986 3.575 2.7568 7.175 3.4627 8 3.2274 3.7717 6.4817 11.158 6.473 14.692-0.012085 4.9036-4.412 12.566-10.225 17.808-7.6988 6.9414-9.743 8.5-11.149 8.5-2.3074 0-13.067 5.0968-13.917 6.592-0.43983 0.77441-1.3831 1.408-2.0962 1.408-0.71308 0-3.0878 1.9125-5.2772 4.25-5.216 5.5689-10.226 9.7662-13.327 11.166-1.375 0.6205-5.0659 2.8058-8.202 4.8563s-6.1579 3.7281-6.7152 3.7281c-0.55728 0-2.4914 1.297-4.298 2.8821-7.1467 6.2706-16.192 10.504-25.91 12.126-8.371 1.3972-12.335 3.1146-13.888 6.017-1.273 2.3785-2.2696 1.9723 13.227 5.3908 14.129 3.1167 36.319 3.6382 46.125 1.084 3.1674-0.825 8.6794-1.5 12.249-1.5 6.1598 0 6.7021 0.1979 10.661 3.8907l4.171 3.8907 0.79315 17.859c0.75041 16.897 0.95078 18.183 3.7181 23.859 2.9575 6.0668 4.6787 16.635 7.0062 43.019 0.6045 6.8527 1.4725 10.336 3.6134 14.5 2.7854 5.4177 2.8258 5.7567 3.517 29.481 0.50147 17.212 1.1565 25.64 2.3159 29.799 1.0994 3.9434 1.617 9.8627 1.6175 18.5 4.5967e-4 6.9857 0.49045 17.651 1.0889 23.701 0.59841 6.05 1.1605 15.275 1.2492 20.5 0.14205 8.3741 0.51668 10.211 3.1611 15.5l3 6 0.021628 35.5c0.015508 25.454 0.36923 36.489 1.25 38.993 0.6756 1.9214 1.2284 7.2233 1.2284 11.782 0 14.367 4.0693 19.442 9 11.224 1.1645-1.9408 1.5727-6.9194 1.8252-22.258 0.35036-21.29-0.23791-24.798-6.0158-35.884-2.0896-4.009-2.2508-5.5243-2.1121-19.85 0.082624-8.5301 0.53304-63.659 1.0009-122.51l0.85069-107 2.2832-4.1552c2.902-5.2815 7.7959-8.5066 17.206-11.339 8.5846-2.5838 16.962-6.0448 16.962-7.0078 0-0.36305 1.2375-1.2929 2.75-2.0663 1.5125-0.77341 4.707-2.987 7.0988-4.919 10.068-8.1325 13.151-11.31 13.151-13.551 0-2.7944-4.5983-6.8438-9.6734-8.5188-9.4866-3.1309-15.294-7.6925-29.277-22.995-8.4405-9.2377-8.7509-9.7487-9.4155-15.5-1.6651-14.411-5.8762-29.828-10.786-39.488-2.6669-5.2473-4.8489-10.053-4.8489-10.678 0-0.62573-1.6159-3.8503-3.5909-7.1657-2.7495-4.6156-3.7181-7.5027-4.1339-12.322-0.59306-6.8735-1.24-8.5485-5.3272-13.794-2.6119-3.3519-4.1057-8.2433-5.497-18-0.35293-2.475-2.6663-8.55-5.1408-13.5-4.5089-9.0197-6.2105-13.386-8.2533-21.178-0.6024-2.2979-2.6617-6.5056-4.5761-9.3505-1.9145-2.8449-3.4809-5.7958-3.4809-6.5577s-1.6406-4.4291-3.6457-8.1495c-2.0051-3.7204-4.2217-7.8894-4.9258-9.2644-0.70405-1.375-1.9474-5.7653-2.763-9.7563-1.4591-7.1398-4.9974-14.614-8.1611-17.24-0.88595-0.73527-3.4694-4.5244-5.741-8.4203-3.1269-5.3628-8.5795-11.475-22.447-25.161-10.074-9.9429-18.328-18.718-18.341-19.5-0.050652-2.9052-7.074-10.884-14.501-16.474-4.2143-3.1718-8.1682-6.9326-8.7865-8.3575-1.3525-3.1168-5.6966-10.076-7.436-11.912-0.68847-0.72679-1.2518-1.9234-1.2518-2.6592s-3.1736-4.6412-7.0525-8.6786c-3.8789-4.0374-8.8436-9.1996-11.033-11.472-2.1892-2.2719-5.0407-6.3219-6.3368-9-1.2961-2.6781-3.7491-6.4442-5.4512-8.3692s-3.1019-4.0993-3.1107-4.8317c-0.021055-1.7554-5.6113-8.6799-15.554-19.267-7.039-7.4949-8.2334-9.3036-9.3046-14.09-0.86555-3.8677-0.92793-6.2834-0.21093-8.1693 1.3425-3.5309 5.4036-5.0769 9.4721-3.6059 1.695 0.61287 7.4309 1.5082 12.747 1.9897 5.3156 0.48148 12.356 1.5727 15.644 2.4249 3.7329 0.9673 10.434 1.5573 17.835 1.5703 12.572 0.022099 19.23 1.1545 31.356 5.3332 8.9157 3.0723 25.339 6.6387 30.688 6.6641 2.318 0.011015 5.9112 1.1753 9.1679 2.9705 4.8222 2.6582 8.6502 3.6955 20.293 5.4989 2.0069 0.31086 6.5244 2.0911 10.039 3.9561 6.8281 3.6235 21.794 8.0207 30.812 9.0529 8.549 0.97855 15.136 2.5921 19.46 4.7666 2.1779 1.0954 7.5779 2.7899 12 3.7656 16.131 3.5591 15.672 3.3243 27.04 13.849 2.2 2.037 6.25 5.2388 9 7.1151 2.75 1.8763 5.5946 3.9954 6.3214 4.7091s1.6695 1.2975 2.0949 1.2975c0.42538 0 4.3214 3.4875 8.6578 7.75s8.6122 8.2 9.5018 8.75c17.239 10.659 21.272 14.619 28.509 28 0.59493 1.1 3.6706 3.35 6.8347 5 3.1642 1.65 8.0767 5.439 10.917 8.4199 11.969 12.563 14.472 14.792 17.246 15.361 3.6956 0.75718 11.86 8.449 13.738 12.942 2.3482 5.6199 7.4744 10.777 10.712 10.777 3.3915 0 5.1188-1.6117 10.181-9.5 3.8991-6.0754 12.83-14.5 15.371-14.5 1.8601 0 11.416-5.9312 11.416-7.0858 0-0.50282 0.47727-0.91423 1.0606-0.91423s4.6606-3.6 9.0606-8 8.495-8 9.1-8c1.9196 0 13.599-8.4159 14.574-10.501 1.5888-3.3997 11.303-14.499 12.689-14.499 4.0731 1e-12 15.516-9.8806 15.516-13.398 0-2.0437 4.8527-6.3986 8.4547-7.5873 1.9499-0.64353 3.5453-1.5852 3.5453-2.0925s0.7875-0.92964 1.75-0.93842c0.9625-0.0087852 3.325-1.4139 5.25-3.1225 1.925-1.7086 4.4491-3.7366 5.6091-4.5067 1.7307-1.149 8.3909-12.158 8.3909-13.869 0-0.8701-2.5404-0.51231-5.4289 0.76462-9.5994 4.2436-13.127 6.488-14.538 9.25-0.84311 1.65-1.7579 3.225-2.0329 3.5s-1.5917 2.075-2.926 4c-1.3343 1.925-3.0218 3.8599-3.75 4.2997-0.72818 0.43983-1.324 1.4035-1.324 2.1415 0 0.83868-2.531 1.9159-6.75 2.8728-10.356 2.3489-11.681 3.0878-19.997 11.153-4.2639 4.1353-8.2026 7.522-8.7526 7.5259-2.503 0.017742-17.449 10.794-24.33 17.543-4.1859 4.1053-8.0929 7.4641-8.6822 7.4641-1.0762 0-3.5635 2.1253-15.373 13.135-3.5116 3.274-7.7463 6.6567-9.4103 7.5172-4.4963 2.3252-12.885 1.3924-20.722-2.3041-5.7741-2.7234-10.117-6.7063-39.746-36.453-18.295-18.368-34.019-34.52-34.942-35.895s-1.995-2.725-2.3825-3c-1.4231-1.0101-2.7865-8.5941-2.1091-11.732 0.81099-3.757 8.0102-13.268 10.043-13.268 1.6747 0 7.4252-6.0048 11.029-11.516 3.6294-5.5512 8.4747-11.916 9.3759-12.317 0.4125-0.18333 0.75-1.1178 0.75-2.0766 0-0.95882 3.3989-4.7432 7.5532-8.4098 8.8628-7.8223 13.286-13.35 17.051-21.308 1.662-3.5131 5.3513-8.4254 9.3955-12.51 6.6986-6.7653 11.075-11.893 14.176-16.609 0.92177-1.4018 5.0132-5.9934 9.092-10.203 5.0877-5.2514 7.9971-9.2079 9.2666-12.602 2.0916-5.5915 5.9997-12.402 8.0614-14.048 5.5444-4.4272 14.404-12.947 14.404-13.852 0-0.60619 0.7875-1.8155 1.75-2.6874 0.9625-0.8719 4.6516-4.6844 8.198-8.4722 3.5464-3.7878 11.913-12.532 18.593-19.432 10.331-10.671 20.459-24.083 20.459-27.094 0-0.42109 3.4514-4.4023 7.6698-8.8471 4.2184-4.4448 9.041-9.9787 10.717-12.298 1.6758-2.3188 3.6244-4.5759 4.3302-5.0158 0.70576-0.43983 1.2832-1.2673 1.2832-1.8389 0-0.57155 3.3304-4.3912 7.4009-8.4882 4.5918-4.6217 8.4008-9.5608 10.035-13.013 3.2071-6.7735 8.4369-13.229 14.945-18.447 6.055-4.8551 11.141-5.2821 16.834-1.4134 2.0235 1.375 3.9547 2.5 4.2917 2.5 2.7459-1e-12 20.494 19.729 20.494 22.781 0 0.58173 2.1556 3.4565 4.7903 6.3883 6.3335 7.0479 11.21 13.389 11.21 14.578 0 0.52787 7.0146 8.0996 15.588 16.826 8.5734 8.7264 16.235 17.117 17.026 18.646 0.79069 1.529 1.7636 2.7907 2.1619 2.8037 0.39838 0.013001 2.0481 1.813 3.6661 4 1.618 2.187 3.4708 3.9764 4.1172 3.9764 1.9464 0 10.531 10.183 12.646 15 2.9589 6.74 2.1713 21.368-1.5616 29-4.0607 8.302-4.8595 9.476-10.724 15.76-2.9808 3.1938-7.3437 8.3756-9.6955 11.515s-14.001 15.499-25.888 27.467c-20.01 20.145-23.273 24.04-32.709 39.036-1.6576 2.6344-5.2715 5.9761-9.4091 8.7006-3.6948 2.4329-7.679 5.2637-8.8537 6.2907-2.3084 2.0181-11.668 20.818-11.146 22.387 0.1749 0.5247 2.3348-0.41239 4.7998-2.0824 2.465-1.67 5.0122-3.0446 5.6604-3.0546 0.64821-0.010008 1.7732-0.60171 2.5-1.3149 3.2305-3.17 15.391-11.808 17.296-12.286 6.033-1.5142 10.65 4.225 10.84 13.476 0.10774 5.2423-1.7223 14.345-3.339 16.607-1.86 2.6033-3.015 9.1233-3.8121 21.521l-0.86936 13.521-5.6468 11.613c-3.1058 6.3873-5.6468 12.778-5.6468 14.201 0 2.856-3.5246 10.948-7.4675 17.145-4.7282 7.4306-5.7639 10.626-5.3384 16.468 0.22164 3.0427 1.2022 7.1072 2.1791 9.0322 2.8506 5.6172 5.6257 13.326 5.6263 15.628 2.7732e-4 1.1703-0.70397 3.8139-1.565 5.8747-0.86103 2.0607-2.2185 8.7532-3.0166 14.872-0.79809 6.1189-1.8572 12.475-2.3535 14.125s-1.2037 5.25-1.5719 8c-0.90903 6.7891-2.968 14.313-5.0135 18.319-1.003 1.9646-2.042 7.4746-2.5458 13.5-0.46815 5.5993-1.3196 11.753-1.8922 13.674s-1.0458 4.6214-1.0517 6c-0.0059272 1.3786-1.8011 6.3316-3.9892 11.007-3.0027 6.4154-3.9811 9.7567-3.9892 13.624-0.012221 5.8111-1.7316 11.373-5.2588 17.011-3.1318 5.0063-4.5342 9.1954-5.7878 17.288-0.98079 6.3317-4.1255 18.721-6.1482 24.223-0.53523 1.4558-4.3128 6.0191-8.3946 10.141s-7.4214 7.9707-7.4214 8.5535-0.58731 1.4194-1.3051 1.8592c-0.71783 0.43983-2.6038 2.5997-4.191 4.7997s-9.0539 10.3-16.593 18c-13.945 14.243-15.89 17.247-15.906 24.568-0.015438 7.1103-3.0207 12.971-10.551 20.574-4.0834 4.1234-8.2033 8.8155-9.1552 10.427-0.95196 1.6115-2.0676 2.9301-2.4792 2.9301-0.41159 0-1.8384 1.6041-3.1706 3.5647-1.3322 1.9606-3.7741 4.3231-5.4264 5.25-3.9525 2.2174-11.042 10.582-11.858 13.99-0.35459 1.4824-2.382 6.2737-4.5053 10.647l-3.8606 7.9519-0.007006 41.048c-0.0064069 37.538-0.17744 41.759-2 49.361-1.862 7.7671-1.993 11.823-1.993 61.73 0 45.581-0.2411 54.613-1.6437 61.574-1.5259 7.573-1.5255 8.7743 0.0066382 16.77 1.4115 7.3665 1.643 16.428 1.6001 62.613-0.027604 29.7-0.43792 55.8-0.91181 58s-2.0814 7.15-3.5723 11c-2.5816 6.6666-2.7332 8.0477-3.184 29-0.40535 18.841-0.74476 22.578-2.3634 26.023-3.5754 7.6099 20.752 6.9614-266.93 7.1158-142.18 0.076323-259.4-0.050813-260.5-0.28252zm414.41-880.24c-3.3113-0.69059-8.5485-3.7403-11.734-6.833-0.72679-0.7056-1.8856-1.2829-2.5752-1.2829s-3.9199-2.071-7.1786-4.6023c-8.4185-6.5394-10.392-7.3568-20.191-8.363-9.6344-0.98932-13.746-2.2799-19.733-6.1947-17.002-11.116-19.898-12.624-24.508-12.764-3.2205-0.097694-10.972-4.2058-18.071-9.5777-3.0685-2.3218-7.7935-5.3402-10.5-6.7074-2.7065-1.3673-7.1465-3.9046-9.8667-5.6385s-5.5506-3.1525-6.2898-3.1525c-2.3054 0-8.6309-3.65-12.556-7.2451-4.5449-4.163-6.073-8.6876-4.6806-13.859 1.0923-4.0566 8.2748-14.402 12.128-17.47 1.331-1.0595 3.0353-3.5013 3.7874-5.4263 3.6867-9.4362 8.3103-17.854 11.51-20.955 1.9503-1.8903 3.546-3.9422 3.546-4.5596 0-0.61748 3.6-6.0107 8-11.985s8-11.424 8-12.11 0.59068-1.8421 1.3126-2.5689c6.2007-6.2423 15.086-16.884 16.133-19.321 0.70842-1.65 2.5855-4.4364 4.1713-6.1919 5.757-6.3732 7.6768-9.5563 9.7975-16.245 1.2494-3.9407 3.5162-8.3585 5.375-10.476 1.768-2.0136 4.29-5.782 5.6045-8.3742s3.3387-5.5703 4.4981-6.6181c1.1594-1.0477 2.1081-2.4568 2.1081-3.1313 0-0.67448 1.5589-2.4154 3.4643-3.8687 1.9054-1.4533 4.1105-4.0942 4.9003-5.8687 0.7898-1.7745 2.9304-6.6013 4.7568-10.726 1.8265-4.125 3.5588-7.725 3.8497-8 2.3948-2.2642 8.0288-10.109 8.0288-11.179 0-0.73845 1.5453-3.1308 3.4341-5.3164 3.2315-3.7394 7.6098-13.293 9.1679-20.004 0.38304-1.65 1.3043-3.8876 2.0472-4.9725 0.74294-1.0849 1.3508-2.5776 1.3508-3.3172s1.4625-2.7906 3.25-4.5578c5.7666-5.7012 10.654-11.821 13.614-17.048 1.5901-2.8076 3.8462-5.9619 5.0134-7.0097 1.1673-1.0477 2.1223-2.3689 2.1223-2.9359 0-0.56698 3.0375-5.467 6.75-10.889 3.7125-5.422 7.5176-11.264 8.4557-12.981 0.93812-1.7176 3.4874-4.9603 5.6651-7.206 3.8458-3.9659 8.9425-11.497 11.222-16.583 0.61636-1.375 1.4985-3.175 1.9603-4 2.1707-3.8779 6.9467-14.331 6.9467-15.203 0-0.53832 1.5916-2.8382 3.537-5.1109s3.7658-5.2692 4.0455-6.659c1.4684-7.2967 2.8215-10.364 5.9535-13.496 4.7207-4.7207 9.9966-6.0601 15.643-3.9715 2.3764 0.87903 5.8958 1.9577 7.8208 2.3971 6.4064 1.4622 11.13 4.1226 18.849 10.615 3.4533 2.9047 21.974 12.471 26.966 13.929 1.2734 0.37183 7.2674 5.5273 13.32 11.457s12.211 11.394 13.685 12.143c3.6788 1.8706 11.772 10.041 12.633 12.754 0.65125 2.0519 5.4954 5.7911 11.547 8.9128 5.9011 3.0443 7.6817 4.4612 14.642 11.651 4.0374 4.1704 7.6395 7.5826 8.0048 7.5826s2.0566 1.0601 3.7586 2.3557 4.8944 3.2742 7.0944 4.3967c4.7935 2.4458 11.5 9.4368 11.5 11.988 0 1.005 1.575 4.2719 3.5 7.2598 4.196 6.5129 4.6826 9.9807 2.3151 16.5-1.3722 3.7786-8.3763 18.02-10.82 22-1.0131 1.65-2.8088 5.5878-3.9906 8.7507s-2.6845 6.3129-3.3395 7c-2.1385 2.2434-4.6649 6.647-4.6649 8.1308 0 0.79852-0.367 1.6018-0.81555 1.7852-2.634 1.0766-10.258 12.518-12.631 18.954-1.4962 4.0584-3.1654 8.5635-3.7093 10.011-0.54393 1.4479-2.3063 3.8946-3.9163 5.4371-1.61 1.5425-2.9273 3.122-2.9273 3.51s-2.4019 3.1163-5.3375 6.0629c-2.9356 2.9466-7.9012 8.8126-11.034 13.036-3.1333 4.223-6.0317 7.823-6.4408 8-1.5908 0.68835-10.187 12.088-10.187 13.509 0 1.5429-2.9334 6.2587-6.1037 9.8127-7.561 8.4758-9.8963 11.35-9.8963 12.179 0 0.52523-5.2144 6.2867-11.588 12.803-6.3731 6.5166-12.007 12.787-12.52 13.933-0.5129 1.1467-2.2645 4.1099-3.8924 6.5849s-3.3747 5.4-3.8817 6.5c-0.50705 1.1-4.2531 5.3796-8.3245 9.5103-5.8531 5.9382-8.4378 9.5967-12.348 17.478-2.7201 5.482-6.0706 10.944-7.4456 12.137-4.2748 3.7095-6.869 5.8095-9.4303 7.6341-1.3579 0.96726-3.054 2.8227-3.7692 4.1232-4.9375 8.9777-27.371 35.618-29.994 35.618-1.7874 0-9.4631 7.2508-16.806 15.876-2.475 2.9071-5.6671 5.8994-7.0936 6.6496-3.3271 1.7498-11.386 2.5512-15.994 1.5903zm-234.32-75.622c-2.1511-1.2748-4.3109-3.0323-4.7997-3.9057-0.48878-0.8734-1.4288-1.5966-2.089-1.6072-0.66017-0.010551-3.0003-1.5905-5.2003-3.511-2.2-1.9205-4.9-3.7719-6-4.1143-2.0912-0.65091-9.7564-6.2871-10.333-7.5981-0.18333-0.41659-0.98168-0.75744-1.7741-0.75744s-3.7398-1.5815-6.5497-3.5143c-2.8099-1.9329-6.2866-3.7728-7.7259-4.0887-8.6761-1.9043-23.125-8.0889-25.617-10.964-0.55-0.63477-3.1034-2.5649-5.6742-4.2892-5.6327-3.778-8.8258-7.6286-8.8258-10.643 0-2.4684 3.5194-7.5 5.246-7.5 0.60547 0 4.7353-1.7531 9.1774-3.8957 4.4421-2.1427 11.333-4.8912 15.313-6.1079s12.042-4.6766 17.916-7.6888c8.9364-4.5826 11.918-5.6078 18.264-6.2804 5.2051-0.55162 9.7045-1.8108 14.343-4.0139 6.4159-3.0472 7.5827-3.2497 23-3.9918 16.311-0.78502 19.015-1.309 28.241-5.4722 5.8036-2.6189 12.377-4.17 21.447-5.0604 3.5458-0.3481 9.1359-1.7255 12.422-3.061 9.2745-3.7686 14.634-3.2555 17.168 1.6435 2.0503 3.9648 1.8442 6.2301-1.1593 12.743-1.4423 3.1273-3.0039 6.9864-3.4703 8.5759s-2.5489 5.4475-4.6277 8.5734c-2.9374 4.4169-5.0053 6.2798-9.2797 8.3597-6.1129 2.9745-13.672 5.6401-16.057 5.6624-1.4556 0.013604-10.943 11.819-10.943 13.617 0 0.73951-7.0614 15.733-9.1354 19.398-3.4765 6.1424-6.8661 13.155-6.8738 14.221-0.015082 2.0937-15.089 15.105-19.398 16.743-4.6808 1.7796-12.688 1.087-17.004-1.4708zm129.94-164.87c-2.8209-2.8209-3.3224-7.6129-1.426-13.625 0.60601-1.9214 1.4732-10.243 1.927-18.493 0.7956-14.462 2.6609-23.011 5.8624-26.869 1.8483-2.2271 6.1091-20.776 6.0849-26.491-0.039321-9.2968-1.3598-12.946-6.615-18.282-2.6323-2.6724-5.2338-4.859-5.7811-4.859-3.3263 0-23.823-8.8254-28.172-12.13-2.8008-2.1282-5.623-3.8695-6.2714-3.8695-1.1699 0-9.1679-4.8568-10.146-6.1614-0.28051-0.37404-1.8555-0.98532-3.5-1.3584-9.0925-2.0628-20.46-7.2078-30.99-14.026-11.042-7.15-11.573-7.3835-20.282-8.9256-10.737-1.9011-12.747-2.8607-15.865-7.5709-4.893-7.3938-3.3564-18.7 3.7841-27.843 1.0244-1.3117 1.8626-3.14 1.8626-4.0628 0-2.3214 4.4637-11.362 6.4054-12.974 0.87701-0.72785 1.5946-1.8605 1.5946-2.5169s1.4625-2.5754 3.25-4.2643c5.5896-5.2813 8.9313-9.6351 10.974-14.297 4.6485-10.611 11.335-22.572 15.195-27.178 5.8355-6.9654 8.0709-9.9215 9.542-12.618 0.81128-1.4871 3.1771-5.4352 5.2573-8.7735 2.0802-3.3383 3.7822-6.7413 3.7822-7.5622 0-1.7838 3.7009-9.7506 5.5131-11.868 0.70608-0.825 2.7151-4.2 4.4645-7.5s3.7509-6.45 4.4479-7c0.69695-0.55 2.0741-2.575 3.0604-4.5s2.132-3.725 2.5461-4c0.95666-0.63536 6.9681-12.435 6.9681-13.678 0-0.51157 1.5206-2.4039 3.379-4.2052 2.4482-2.3729 4.5831-3.4132 7.75-3.7763 6.3771-0.73124 9.6597-2.2356 11.976-5.4881 2.871-4.0319 7.3082-6.1335 11.218-5.3132 1.7474 0.3666 6.102 2.1722 9.677 4.0124s8.5864 3.6138 11.137 3.9411c4.647 0.59658 14.61 5.8766 22.025 11.673 2.014 1.5742 5.389 3.5787 7.5 4.4545 2.111 0.87576 6.3132 3.0763 9.3382 4.8902s7.2671 3.6013 9.4268 3.972c6.7657 1.1615 31.035 13.702 32.398 16.741 0.17859 0.39826 3.5536 3.0632 7.5 5.9221 3.9464 2.8589 11.626 9.6205 17.065 15.026 5.4393 5.4054 10.122 9.8279 10.406 9.8279 0.28377 0 1.9084 1.0612 3.6103 2.3581 1.7019 1.297 5.3444 3.5158 8.0944 4.9306s7.1865 4.4037 9.8589 6.6419c2.6724 2.2381 5.2494 4.0694 5.7267 4.0694 1.3206 0 4.9169 8.0343 4.896 10.938-0.053333 7.4162-4.5745 26.407-7.7787 32.674-1.8457 3.6098-3.0469 8.877-4.8465 21.25-0.26891 1.849-1.5841 4.4569-2.9227 5.7955s-2.4337 2.6344-2.4337 2.8796c0 0.24524-1.4979 2.4082-3.3286 4.8066-1.8307 2.3984-3.9 6.4017-4.5985 8.8961-1.2827 4.5812-5.8253 10.929-13.067 18.26-3.61 3.6547-12.006 18.33-12.006 20.985 0 0.61373-3.9375 5.4044-8.75 10.646-7.322 7.9748-9.2964 10.873-12.098 17.758-2.4664 6.0614-5.0416 10.162-9.7813 15.575-3.5384 4.041-7.0944 7.6009-7.9022 7.9109-0.80781 0.30999-1.4687 1.0993-1.4687 1.7541 0 0.65478-1.8 3.5746-4 6.4885s-4 5.7298-4 6.2575-0.34316 1.1096-0.76258 1.2929c-1.1218 0.49034-7.5765 9.8915-8.9829 13.083-0.66643 1.5125-1.5588 2.7572-1.9831 2.766-0.42429 0.0087852-2.3464 1.4188-4.2714 3.1333-1.925 1.7145-5.0689 3.7828-6.9863 4.5962-1.9175 0.81339-8.8925 6.7747-15.5 13.247-15.421 15.106-18.889 18.028-25.158 21.2-8.1573 4.1264-10.85 4.4041-13.828 1.4264zm-168.03-178.33c-2.4202-0.58407-7.5503-2.7034-13.139-5.428-2.2767-1.1099-5.9149-2.2561-8.0849-2.5472-2.8567-0.38316-5.6557-1.9768-10.143-5.775-6.6747-5.6496-12.853-8.0065-29.037-11.076-9.4724-1.7969-13.663-3.4409-20.489-8.0374-2.7941-1.8817-5.4866-3.4212-5.9833-3.4212-0.49671 0-1.4027-0.64496-2.0133-1.4332-1.9107-2.4665-10.758-6.5668-14.17-6.5668-4.4443 0-14.596-3.2629-18.253-5.8666-1.6479-1.1734-3.457-2.1334-4.0203-2.1334s-1.661-0.63679-2.4393-1.4151c-0.7783-0.7783-4.5229-3.3131-8.3214-5.633-3.7985-2.3198-8.1784-5.283-9.7331-6.5849-1.5547-1.3019-3.8047-2.3744-5-2.3835-3.5708-0.027029-9.8335-4.2411-11.865-7.9835-1.4433-2.6594-1.804-4.941-1.5018-9.5 0.517-7.7995 2.5028-12.697 7.0273-17.33 2.0162-2.0648 3.6659-4.1027 3.6659-4.5287 0-1.1431 5.0283-7.8004 7.8351-10.374 1.3394-1.2279 4.5881-3.614 7.2195-5.3025 5.4679-3.5088 6.5669-4.9888 13.156-17.718 3.0509-5.8939 4.7896-10.526 4.7896-12.761 0-3.4913 3.5628-12.486 4.9457-12.486 0.39901 0 3.3697-5.2875 6.6015-11.75s6.8445-12.522 8.0282-13.465c1.1837-0.94348 3.7754-4.9935 5.7595-9 4.1899-8.4609 6.0097-11.09 14.165-20.466 3.3-3.7938 6.9-8.2072 8-9.8076s3.6875-4.6917 5.75-6.8696c2.0625-2.1779 3.75-4.345 3.75-4.8158s1.4625-3.3499 3.25-6.398c1.7875-3.0481 3.925-6.8332 4.75-8.4113 1.8386-3.5171 11.097-14.016 12.36-14.016 0.50383-1e-13 2.8077-1.6875 5.1196-3.75 13.932-12.428 15.661-13.25 27.886-13.25 10.539 3e-14 14.288 1.2904 18.367 6.3214 2.4234 2.9888 8.3557 6.016 17.266 8.8107 4.125 1.2938 8.0789 2.9025 8.7864 3.575 0.70751 0.6725 2.62 2.0105 4.25 2.9734 1.63 0.96286 2.9636 2.1036 2.9636 2.535s0.78894 0.78439 1.7532 0.78439 4.0018 1.5992 6.75 3.5537 6.9662 4.5377 9.3732 5.7404 5.332 3.1957 6.5 4.429c1.168 1.2333 2.8211 2.2501 3.6736 2.2596 0.8525 0.0095021 1.9775 0.43137 2.5 0.93749 1.4328 1.3879 12.728 7.0798 14.05 7.0798 1.5131-1e-13 12.4 11.878 12.4 13.528 0 0.70068 1.4625 2.147 3.25 3.214 1.7875 1.067 4.7802 3.249 6.6504 4.8488 8.6134 7.368 14.559 12.862 17.311 15.997 1.6476 1.8765 3.5491 3.4117 4.2256 3.4117s3.1049 1.7309 5.3964 3.8464c3.9021 3.6024 4.1661 4.1892 4.1611 9.25-0.0051093 5.2442-0.48133 6.4335-5.2501 13.111-0.96545 1.3519-3.2909 6.7551-5.1678 12.007-1.8768 5.2521-3.8322 10.39-4.3453 11.417-7.3738 14.765-7.6964 15.28-13.982 22.317-2.3375 2.6171-4.25 5.2191-4.25 5.7822s-0.66068 1.5722-1.4682 2.2423c-1.8683 1.5505-6.0629 9.0221-6.8696 12.236-0.53806 2.1438-2.1169 5.1724-6.9282 13.29-0.65196 1.1-2.8838 4.7314-4.9597 8.0697-2.0759 3.3383-3.7743 6.4062-3.7743 6.8174 0 0.41125-2.025 3.2336-4.5 6.272s-4.5086 5.8205-4.5192 6.1826c-0.010551 0.36208-1.5856 2.4534-3.5 4.6474s-3.4808 4.5247-3.4808 5.1793-1.8 3.9002-4 7.2123c-2.2 3.3122-4 6.4639-4 7.0038s-2.025 2.641-4.5 4.6691c-2.475 2.0281-4.5 4.2827-4.5 5.0102s-0.83523 1.9109-1.8561 2.6295c-2.0043 1.411-5.4856 7.7661-6.4678 11.807-0.33424 1.375-2.4691 4.9689-4.7441 7.9864-5.9001 7.8258-11.185 9.9579-24.432 9.8575-5.5-0.041713-10.9-0.29304-12-0.5585z"/>
</svg>
